<?xml version="1.0" encoding="UTF-8" standalone="no"?>
<!-- Created with Inkscape (http://www.inkscape.org/) -->

<svg
   xmlns:dc="http://purl.org/dc/elements/1.1/"
   xmlns:cc="http://creativecommons.org/ns#"
   xmlns:rdf="http://www.w3.org/1999/02/22-rdf-syntax-ns#"
   xmlns:svg="http://www.w3.org/2000/svg"
   xmlns="http://www.w3.org/2000/svg"
   xmlns:sodipodi="http://sodipodi.sourceforge.net/DTD/sodipodi-0.dtd"
   xmlns:inkscape="http://www.inkscape.org/namespaces/inkscape"
   width="192mm"
   height="64mm"
   viewBox="0 0 192 64"
   version="1.1"
   id="svg836"
   inkscape:export-filename="/home/stefano/widget-xxxhdpi.png"
   inkscape:export-xdpi="101.6"
   inkscape:export-ydpi="101.6"
   inkscape:version="0.92.4 (f8dce91, 2019-08-02)"
   sodipodi:docname="widget background.svg">
  <defs
     id="defs830" />
  <sodipodi:namedview
     id="base"
     pagecolor="#ffffff"
     bordercolor="#666666"
     borderopacity="1.0"
     inkscape:pageopacity="0"
     inkscape:pageshadow="2"
     inkscape:zoom="0.93593056"
     inkscape:cx="512.93916"
     inkscape:cy="119.58108"
     inkscape:document-units="mm"
     inkscape:current-layer="layer1"
     showgrid="false"
     inkscape:pagecheckerboard="false"
     inkscape:window-width="2493"
     inkscape:window-height="1385"
     inkscape:window-x="1987"
     inkscape:window-y="27"
     inkscape:window-maximized="1"
     showguides="true"
     inkscape:guide-bbox="true">
    <sodipodi:guide
       position="50.885184,83.677858"
       orientation="1,0"
       id="guide1495"
       inkscape:locked="false" />
    <sodipodi:guide
       position="63.323785,62.758394"
       orientation="1,0"
       id="guide1497"
       inkscape:locked="false" />
  </sodipodi:namedview>
  <metadata
     id="metadata833">
    <rdf:RDF>
      <cc:Work
         rdf:about="">
        <dc:format>image/svg+xml</dc:format>
        <dc:type
           rdf:resource="http://purl.org/dc/dcmitype/StillImage" />
        <dc:title></dc:title>
      </cc:Work>
    </rdf:RDF>
  </metadata>
  <g
     inkscape:label="Layer 1"
     inkscape:groupmode="layer"
     id="layer1"
     transform="translate(0,-233)">
    <rect
       style="opacity:1;fill:#ffffff;fill-opacity:1;stroke:#cecece;stroke-width:1.51738226;stroke-miterlimit:4;stroke-dasharray:none;stroke-opacity:0.15294118"
       id="rect1462"
       width="88.48262"
       height="50.482616"
       x="0.75869113"
       y="239.75868"
       ry="25.241308" />
    <g
       id="g1460"
       transform="matrix(0.08605624,0,0,0.08605624,4.8011765,242.99976)">
      <g
         style="fill:none;fill-rule:evenodd;stroke:none;stroke-width:1"
         transform="matrix(11.787476,0,0,11.787476,-6.412384,-6.279999)"
         id="g-1">
        <path
           id="Fill-1"
           d="m 22.232,43.909 c -11.978,0 -21.688,-9.71 -21.688,-21.688 0,-11.978 9.71,-21.688 21.688,-21.688 11.978,0 21.688,9.71 21.688,21.688 0,11.978 -9.71,21.688 -21.688,21.688 z"
           inkscape:connector-curvature="0"
           style="fill:#00aef0" />
        <polygon
           points="33.215,34.617 34.603,33.229 30.318,28.943 34.901,27.41 22.237,22.251 27.396,34.915 28.93,30.332 "
           id="Fill-4"
           style="fill:#ffffff" />
        <path
           id="Fill-6"
           d="m 22.237,30.038 c -4.311,0 -7.817,-3.507 -7.817,-7.818 0,-4.31 3.506,-7.817 7.817,-7.817 4.31,0 7.817,3.507 7.817,7.817 0,0.049 -0.006,0.096 -0.007,0.145 l 5.123,2.086 c 0.124,-0.725 0.193,-1.47 0.193,-2.231 0,-7.238 -5.888,-13.126 -13.126,-13.126 -7.238,0 -13.126,5.888 -13.126,13.126 0,7.238 5.888,13.127 13.126,13.127 0.751,0 1.486,-0.067 2.203,-0.189 l -2.088,-5.126 c -0.039,0.001 -0.076,0.006 -0.115,0.006"
           inkscape:connector-curvature="0"
           style="fill:#ffffff" />
      </g>
      <g
         id="g1445" />
    </g>
  </g>
</svg>
